<?xml version="1.0" standalone="no"?>
<!DOCTYPE svg PUBLIC "-//W3C//DTD SVG 20010904//EN"
 "http://www.w3.org/TR/2001/REC-SVG-20010904/DTD/svg10.dtd">
<svg version="1.0" xmlns="http://www.w3.org/2000/svg"
 width="1280.000000pt" height="640.000000pt" viewBox="0 0 1280.000000 640.000000"
 preserveAspectRatio="xMidYMid meet">
<metadata>
Created by potrace 1.15, written by Peter Selinger 2001-2017
</metadata>
<g transform="translate(0.000000,640.000000) scale(0.100000,-0.100000)"
fill="#000000" stroke="none">
<path d="M11739 4100 c-184 -23 -363 -103 -469 -210 -118 -119 -175 -245 -174
-385 1 -100 26 -169 92 -250 64 -80 111 -107 178 -102 62 4 107 33 134 87 39
77 20 127 -70 191 -64 45 -75 63 -65 109 10 45 97 135 162 166 74 37 195 45
290 19 198 -54 354 -278 354 -511 0 -135 -44 -219 -155 -299 -210 -148 -426
-177 -731 -95 -127 34 -250 80 -570 215 -292 123 -433 165 -577 172 -239 13
-395 -41 -773 -267 -308 -184 -455 -249 -658 -291 -219 -46 -557 -20 -872 68
-314 87 -607 217 -1215 541 -598 318 -964 474 -1320 561 -355 87 -725 115
-939 71 -309 -63 -599 -206 -1291 -635 -500 -310 -684 -410 -860 -469 -176
-58 -577 -86 -815 -56 -452 56 -854 237 -1228 552 -145 122 -178 140 -162 87
11 -34 159 -183 270 -272 352 -282 753 -461 1200 -534 135 -22 503 -25 638 -5
255 37 484 138 1128 497 724 404 978 514 1275 556 121 17 413 -11 644 -62 398
-87 703 -216 1410 -594 378 -202 517 -271 723 -359 301 -129 530 -199 807
-250 256 -47 436 -56 623 -31 219 29 397 87 744 243 321 145 415 180 553 202
190 30 302 2 740 -181 496 -207 726 -269 1001 -269 260 0 482 69 711 222 171
114 263 228 304 378 28 99 26 444 -4 551 -66 244 -236 423 -524 551 -173 77
-350 108 -509 88z"/>
</g>
</svg>
