<?xml version="1.0" encoding="iso-8859-1"?>
<!-- Generator: Adobe Illustrator 18.0.0, SVG Export Plug-In . SVG Version: 6.00 Build 0)  -->
<!DOCTYPE svg PUBLIC "-//W3C//DTD SVG 1.1//EN" "http://www.w3.org/Graphics/SVG/1.1/DTD/svg11.dtd">
<svg version="1.1" id="Capa_1" xmlns="http://www.w3.org/2000/svg" xmlns:xlink="http://www.w3.org/1999/xlink" x="0px" y="0px"
	 viewBox="0 0 451.602 451.602" style="enable-background:new 0 0 451.602 451.602;" xml:space="preserve">
<path d="M450.533,206.508c-1.121-1.617-2.964-2.581-4.931-2.581h-75.029c-1.083-13.651-5.335-26.942-12.678-38.264
	c-9.781-15.084-25.943-24.44-43.231-25.029c-1.015-0.035-3.169-0.026-3.223-0.026H71.114C31.901,140.608,0,178.824,0,225.797
	c0,46.974,31.901,85.189,71.114,85.189l143.763,0.009c0,0,0.001,0,0.002,0l93.641-0.026l0.001,0
	c31.642-0.001,61.984-9.613,87.746-27.8c25.189-17.782,44.192-42.381,54.955-71.139
	C451.911,210.188,451.654,208.124,450.533,206.508z M347.827,172.192c12.888,19.872,14.54,48.086,4.111,70.21
	c-5.466,11.609-14.634,19.878-25.154,22.687c-9.06,2.417-18.519,0.629-26.644-5.038c-7.167-4.996-12.29-13.378-14.331-23.137h44.983
	c2.323,0,4.438-1.341,5.428-3.442c7.561-16.045,2.983-35.931-10.419-45.269c-5.279-3.684-11.205-5.605-17.225-5.669
	c-0.13-0.008-43.516-0.02-43.516-0.02c10.6-17.763,27.502-29.493,46.508-29.898c0.025-0.001,2.067-0.01,2.686,0.011
	C327.628,153.083,340.178,160.396,347.827,172.192z M253.497,225.797c0-11.156,2.06-21.771,5.734-31.283h24.554
	c-2.206,2.614-4.123,5.586-5.668,8.865c-4.024,8.548-5.808,18.208-5.156,27.936c0,0.002,0,0.003,0,0.005
	c0.919,13.773,6.663,26.342,15.646,34.763h-25.309C257.104,254.492,253.497,240.631,253.497,225.797z M288.974,208.493
	c3.229-6.854,8.591-11.722,14.71-13.355c5.17-1.379,10.588-0.348,15.255,2.909c7.558,5.266,10.711,16.923,7.74,26.868h-41.783
	C285.203,219.159,286.585,213.566,288.974,208.493z M214.877,298.995l-143.763-0.009C38.519,298.986,12,266.154,12,225.797
	s26.519-73.189,59.114-73.189h205.001c-5.288,3.794-10.195,8.445-14.596,13.888c-12.912,15.967-20.022,37.027-20.022,59.301
	c0,30.903,13.882,58.244,34.726,73.181L214.877,298.995z M389.347,273.366c-23.106,16.311-50.218,25.117-78.542,25.568
	c-0.398,0.006-1.635-0.075-1.862-0.092c-14.669-1.113-27.834-8.78-37.654-20.689c0,0,46.724,0,47.481,0
	c3.702,0,7.427-0.486,11.109-1.469c13.943-3.723,25.941-14.354,32.916-29.167c4.681-9.931,7.301-20.726,7.917-31.59h65.949
	C426.382,238.942,410.155,258.676,389.347,273.366z"/>
<g>
</g>
<g>
</g>
<g>
</g>
<g>
</g>
<g>
</g>
<g>
</g>
<g>
</g>
<g>
</g>
<g>
</g>
<g>
</g>
<g>
</g>
<g>
</g>
<g>
</g>
<g>
</g>
<g>
</g>
</svg>
